<?xml version="1.0" encoding="utf-8"?>
<!-- Generator: Adobe Illustrator 27.0.0, SVG Export Plug-In . SVG Version: 6.00 Build 0)  -->
<svg version="1.1" id="Layer_1" xmlns="http://www.w3.org/2000/svg" xmlns:xlink="http://www.w3.org/1999/xlink" x="0px" y="0px"
	 viewBox="0 0 857.6 294" style="enable-background:new 0 0 857.6 294;" xml:space="preserve">
<style type="text/css">
	.st0{fill:#373737;}
	.st1{fill:#B32400;}
</style>
<g>
	<path class="st0" d="M74.6,267.6H49.8l-6.4,14H34l28.6-61.4l27.6,61.4h-9.5L74.6,267.6z M71,259.4l-8.6-19.7l-9,19.7H71z"/>
	<path class="st0" d="M113.8,223.9v57.8h-8.7v-57.8H113.8z"/>
	<path class="st0" d="M133.3,281.7l12.2-62.1l19.8,44.9l20.6-44.9l10.9,62.1h-8.9l-5.6-34.9l-17.1,37.5l-16.6-37.6l-6.2,34.9H133.3z
		"/>
	<path class="st0" d="M228.4,256.7l-18.9-32.8h10l13.2,23.1l13.3-23.1h10l-18.9,32.8v25h-8.7V256.7z"/>
	<path class="st0" d="M299.3,232.1h-20.1V246h19.4v8.2h-19.4v27.5h-8.7v-57.8h28.9V232.1z"/>
	<path class="st0" d="M336.6,257.1l17.9,24.6h-10.7L327.3,258h-1.6v23.7h-8.7v-57.8h10.2c7.6,0,13.2,1.4,16.5,4.3
		c3.7,3.2,5.6,7.4,5.6,12.7c0,4.1-1.2,7.6-3.5,10.6C343.6,254.3,340.5,256.2,336.6,257.1z M325.8,250.4h2.8c8.3,0,12.4-3.2,12.4-9.5
		c0-5.9-4-8.9-12.1-8.9h-3.1V250.4z"/>
	<path class="st0" d="M404.8,267.6h-24.7l-6.4,14h-9.4l28.6-61.4l27.6,61.4h-9.5L404.8,267.6z M401.3,259.4l-8.6-19.7l-9,19.7H401.3
		z"/>
	<path class="st0" d="M435.3,281.7V220l42.2,44.1v-40.2h8.7v61.3l-42.2-44v40.5H435.3z"/>
	<path class="st0" d="M551,227v10.3c-5-4.2-10.3-6.3-15.6-6.3c-5.9,0-10.9,2.1-15,6.4c-4.1,4.2-6.1,9.4-6.1,15.6
		c0,6.1,2,11.2,6.1,15.3c4.1,4.2,9.1,6.3,15,6.3c3.1,0,5.7-0.5,7.8-1.5c1.2-0.5,2.4-1.2,3.7-2c1.3-0.8,2.6-1.9,4.1-3.1v10.5
		c-5,2.8-10.2,4.2-15.7,4.2c-8.3,0-15.3-2.9-21.2-8.6c-5.8-5.8-8.7-12.8-8.7-21c0-7.4,2.4-13.9,7.3-19.7c6-7.1,13.7-10.6,23.2-10.6
		C541.1,222.8,546.1,224.2,551,227z"/>
	<path class="st0" d="M566.4,252.5c0-8.1,3-15.1,8.9-21c5.9-5.8,13.1-8.8,21.4-8.8c8.2,0,15.3,2.9,21.2,8.8c5.9,5.9,8.9,13,8.9,21.2
		c0,8.3-3,15.4-8.9,21.2c-6,5.8-13.2,8.7-21.6,8.7c-7.5,0-14.2-2.6-20.1-7.7C569.7,269.3,566.4,261.8,566.4,252.5z M575.2,252.6
		c0,6.4,2.1,11.6,6.4,15.8c4.3,4.1,9.2,6.2,14.8,6.2c6.1,0,11.2-2.1,15.3-6.3c4.2-4.2,6.3-9.4,6.3-15.5c0-6.2-2.1-11.3-6.2-15.5
		c-4.1-4.2-9.2-6.3-15.2-6.3c-6,0-11.1,2.1-15.2,6.3C577.3,241.4,575.2,246.5,575.2,252.6z"/>
	<path class="st0" d="M645.1,277.5c0-1.4,0.5-2.6,1.5-3.6c1-1,2.2-1.5,3.7-1.5c1.4,0,2.6,0.5,3.7,1.5c1,1,1.5,2.2,1.5,3.7
		c0,1.4-0.5,2.7-1.5,3.7c-1,1-2.2,1.5-3.7,1.5c-1.5,0-2.7-0.5-3.7-1.5S645.1,279,645.1,277.5z"/>
	<path class="st0" d="M710.7,267.6H686l-6.4,14h-9.4l28.6-61.4l27.6,61.4h-9.5L710.7,267.6z M707.2,259.4l-8.6-19.7l-9,19.7H707.2z"
		/>
	<path class="st0" d="M760.8,257.1l17.9,24.6H768L751.5,258h-1.6v23.7h-8.7v-57.8h10.2c7.6,0,13.2,1.4,16.5,4.3
		c3.7,3.2,5.6,7.4,5.6,12.7c0,4.1-1.2,7.6-3.5,10.6C767.7,254.3,764.6,256.2,760.8,257.1z M749.9,250.4h2.8c8.3,0,12.4-3.2,12.4-9.5
		c0-5.9-4-8.9-12.1-8.9h-3.1V250.4z"/>
	<path class="st0" d="M810.3,232.1v49.6h-8.7v-49.6h-13.3v-8.2h35.3v8.2H810.3z"/>
</g>
<g>
	<path class="st1" d="M197.1,206.3c1.7,0.7,6.6-2.2,9.3-4.9l4.9-3.9l2.4-2l1-1l2-2c0.7-1.7,2.4-2.4,4.4-4.4l4.4-4.9l2-2l3.4-3.4
		c2-2,4.2-4.2,5.9-5.4c2-1.5,2.9-2.4,2.9-2.9l1-1l1.5-2l2-1.5l1-1c0-0.5,1-1.5,2.9-2.9c2.4-1.7,6.9-8.3,6.9-8.8
		c-1.2-0.5-21.8-0.7-22.5,2c-1.5,1-2.9,0.5-4.4-1.5c0-0.2-0.2-0.7-0.5-1l-1-0.5c-1.7,0-5.1-0.5-3.4-2.4c1.7,0,1.7-0.7,0-1.5
		c-0.7,1.7-2.2,0.2-0.5-0.5c0-0.2-0.2-0.7-0.5-1c-0.2,0-0.5-0.2-0.5-0.5c-0.7-0.7,0.5-3.9,2.4-5.9c1.5,0,29.1-2.4,30.8-2.4
		c2.4-0.7,18.1-2,18.1-2h0.5l0.2-0.2c0.2,0,0.5-0.2,0.7-0.2c0-0.5,9.3-8.6,11.3-9.8c0-0.7,3.7-5.6,9.3-10.3l9.8-9.8
		c0.7,0,1.2-1.2,2-2c0.7,0,1.5-0.7,2-2v-0.5c0.7-0.7,0.2-1,1-1c0.7-0.7,14.2-11.7,16.6-14.2c0-0.2,0.2-0.7,1-1.5c1.2,0,2-0.5,2-1.5
		c0-0.7,0.2-0.2,1-1l1.5-2.9l2.9-1.5c0.7-0.7,0.2-1,1-1l2.9-3.4c2.7-1.7,4.2-3.7,5.9-5.4l3.4-3.4c1-1,1.7-1.2,2.4-0.5v-0.5
		c-0.7-0.7,0.2-2.2,2-2.9c2.7-2,4.6-4.2,7.3-5.9c2-2.7,5.4-3.9,7.3-5.9c1.7-2,1.7-0.2,1-2c3.9-2.7,11.7-9.8,28.4-22.5
		c15.7-11.5,21.8-16.4,24.5-14.7h1v0.5c-0.5,0.5,0,1,1.5,1.5h2.9c-0.7,1.7-1,1.2,1,2c1-0.5,1.5-0.2,1.5,0.5V14
		c0,0.2,0.2,0.5,0.5,0.5s0.2,0.2,0,0.5c-1,1-1,1.5,0,1.5c1.2,0-1.2,4.6-7.3,14.2c-8.3,12.2-18.4,30.8-23,41.1
		c-1.7,2.7-2.2,4.7-3.9,6.4c-0.7,1.7-0.7,4.2-2.4,4.9l-1.5,2.4l-1,1.5c-0.7,0-0.5,1.2-0.5,2c-1.7,2-3.7,7.1-4.4,7.8
		c-1,1.5-1.5,2.7-1.5,3.4l-5.4,10.3c-2.7,5.6-4.6,10.8-5.4,12.7c-1.7,1.7-2.4,2.2-2.4,2h-0.5c0,0.2,0.2,0.5,0.5,0.5l-2,4.9
		c-0.7,1.7-1.7,2.7-2.4,4.4c0.5,0.2,1.5,0.2,2.7,0.2c2,0,4.9,0,9.1-0.2c10.5-0.7,14.9-0.2,12.2,2.4c-0.5,0,0.2,0.7,2,2
		c1.7,0.5,2.4,1.2,2.4,2v1c0.7,0,1,2.4,1,4.4c-1.7,0-1.7,1.2-4.4,0.5h-10.3h-14.7c-4.4,0-6.9,0.7-7.3,2.4c0,0.7,0,2.7-2,4.4
		c-1.7,2-2,3.7-2,4.4c-2,3.7-1.7,5.6-5.4,11.3c-1.7,2-1.7,5.6-3.4,7.3c-3.7,6.6-7.1,15.9-9.8,20.6c-0.7,2.7-2.9,5.6-2.9,6.4
		c-0.5,1-1.2,1.5-2,1.5c-0.2,0-0.2,0.2,0,0.5c0,0.7-0.2,1-0.5,1c-0.7,0.7-1,1.5-0.5,2c0.7,0-0.2,0.2-1,2c-1.7,2-0.7,1.7-1.5,2.4
		c1.2,0-2.9,4.6-2.9,5.9c-1.7,1.7,0.2,4.4-2.4,4.4c-2-0.7-2.7-0.7-4.4-3.4l-1-3.9c-2-1.7-1-6.1,1-8.8l0.7-0.5c0.5-0.5,0.7-0.7,0.7-1
		c-1.7,0,0.2-1.2,1-2c0.7-1.7,0.5-1.7,0.5-2.4V201c0-0.2,0.2-0.7,0.5-1c0.7,0,1.2-2.2,2-2.9c2.7-3.9,2.7-1.2-1,4.4
		c-1.7,2-1.2,3.7-2,5.4l-0.5,2h0.5h1c2-0.7,2-2.4,5.9-8.3c1.7-3.9,3.2-6.9,3.9-6.9s1-0.2,1-1c-0.7-0.2-0.2-1.7,1-3.9
		c0.2-1.2,0.7-1.7,1-2.4c0.2-0.2,0.5-0.5,0.5-0.5c0.7,0.7,1.2,0.7,1.5,0.5c-0.2,0-0.5-0.2-0.5-0.5v-0.2c0-0.2-0.2-0.5-0.5-0.7v-0.5
		v-0.5c0-1.5,0.2-1.5,1,0c0,0.7,1.7,0.7,0-1c0.7-3.7,1.5-3.2,1.5-1.5c0,0.7-0.2,0.7,0.5-2c0-2,0.2-2.7,1-2c-0.7,1.7,0,1.2,0-1.5
		c0-1.7,0.7-2.2,1.5-3.9c0.2,0,0.7-0.2,1-0.2c0.2,0,0.2,0,0.2-0.2c0,0.2,0,0.2-0.2,0.5c-0.2,0.2-0.7,0.7-1,1.5
		c-1.7,2-1.2,2.2,1.5-1.5c2.7-4.6,3.2-7.6,1.5-4.9v-0.5c0-0.7,0.2-1,1-1c1.7,0,2.7-3.7,3.4-6.4c0-1-0.2-1-0.5,0c-1.2,0.5-1-1,1-4.4
		c0.7-1.7,1.5-1.7,1.5,0c0,1.7,1,1.7,1,0c0-0.2,0.2-0.7,0.5-1l0.5-0.5c0.2-0.2,0.5-1.2,0.5-2.4c0.7-0.7,0.2-1,2-1c0,0.7,1,0.7,1,0
		h-0.5h-0.5v-1c0.7-0.7,0-2.2-2-0.5l-0.5-0.5h-0.5c0,1,0.2,1.5,0.5,1.5c0.7,0.7,0.2,0.5-0.5,2.4c-0.7,0.7-1,0.7-1,0
		c0.7-2-0.5,0-2.4,2c-1.7,2-2.7,5.9-5.4,11.7c-2.7,3.9-3.7,7.6-4.4,8.3c-0.7,0.7-1.7,0.7-1,0c0-1,0.5-1.5,1.5-1.5l2-6.4
		c0-0.5,0.7-1,2-1.5l0.5-3.4v-2l-1,2c-1.7,1.7-1,1.7-1,0c-0.7-1.7,0.2-2.4,1-2.4c1.7-2,0.7-2,1.5,0v-2c0-1.7,0.7-2.2,0-1.5
		c1.7,0.7,1.2,1.2,2-0.5c0.7-0.2,1-0.7,1.2-1.2c0.2-0.2,0.2-0.5,0.2-0.7c0.5-1,1-1.5,1.5-1.5v-1c-1.7,0-1.7,0.7,0-1
		c0.5-0.5,0.5-1,0-1.5c-0.2-0.2-0.7-0.2-1,0c-0.2-0.2-1.2-0.5-2.4-0.5H339c-3.9,0.7-8.3,0-10.3,0h-31.3c-2,0.7-5.6,1.7-8.3,1
		c-9.3,0-10.8,0.5-15.2,4.4c-2.7,2.7-4.6,4.9-5.4,4.9l-2.4,2.9l-7.8,8.3c-2,0.7-2.2,2.2-5.9,6.9l-2.4,2l-1,1
		c-1.7,0.7-3.4,3.4-5.4,5.4c-7.1,7.1-9.1,10-15.7,16.6c-7.8,7.8-12.5,11.3-18.1,13.2c-3.9,1.7-5.1,1.2-8.8-1.5
		C197.1,208.8,195.4,205.6,197.1,206.3z M243.1,171.6c-0.7,0-1.2,1.2-2.9,2c-0.7,0.7-1.7,2,0,2l2.4-2.4c2-1.7,2.2-2.2,2.9-2.9
		C245.5,168.9,244.8,169.4,243.1,171.6z M247.5,165.7c-2.7,3.7-2.7,2.7-2,3.4c0.7,0,4.9-3.2,4.9-4.9
		C251.2,163.5,249.4,163.8,247.5,165.7z M251.4,162.8l1-0.5c0-0.2,0.2-0.5,0.5-0.5c0.7,0,0.7-1.2,2.4-2c0.7-2.2,1.7-2.7,2.4-2
		c0-0.2,0.2-0.7,0.5-1h0.5c-0.5-0.5-0.5-1,0-1.5l0.5-0.5c1,0,1.5-0.2,1.5-1v-0.5c-0.7,0-2.7,2.2-5.4,4.9l-4.9,4.4H251.4z M283.2,131
		l0.5-0.5c1.7-0.5,2.4-1.2,2.4-2c1-2,1.7-2.9,2.4-2.9h0.5l-0.5-0.5h0.5c0.2-0.2,0.7-0.5,1-0.5c0.5,0,1-0.5,1.5-1.5
		c0-0.2,0.2-0.5,0.5-0.5c0.7,0.7,1.5,0.2,2.4-1.5c0.5-1.2,1.2-2,2-2c0,0.7,0.2,0.7,1,0v-0.5c0-0.7,0.7-2.2,2.4-2.9l2-2l0.5-1l1-1
		c2.7-0.7,5.9-5.6,5.9-6.4v-1c0.7,2,2.7,0.7,3.4-1v-1.5v-0.5h1l1.5-1.5l2-1.5l1-1c1.7,0,5.4-4.6,5.4-5.4c0-0.7,0.2-1,0.5-1
		c1.5,1.5,4.9-3.7,4.9-4.9v-0.5l0.5,0.5c0-0.5,11-8.6,10.3-9.8h0.5l1.5-1c2.4-1.5,2.9-2.4,1.5-2.9c-0.7,0-5.9,5.6-13.7,12.2
		l-6.9,7.3c-3.9,2.9-5.9,4.7-5.9,5.4l-1,1l-2.4,2l-5.9,5.9c-3.2,3.2-12.2,12-17.1,16.2c-2.7,3.4-11.7,12-11.7,12.7h0.5
		c1.2,0.7,4.6-3.4,3.9-3.4C282.7,131.7,283,131.2,283.2,131z M289.6,130c1,0,1.5-0.2,1.5-1l-0.5,0.5c-2,0.7-2.7,1.7,0,1L289.6,130z
		 M291,139.3h0.5h0.5v-0.5c-2,0-4.2-0.2-2.4,0.5H291z M295.5,135.9c2.7,0.7,7.1,0.2,10.8-0.5c3.7,0,6.6-0.5,8.3-0.5
		c3.7,0.7,10.8,1,18.6,1c3.9-0.7,6.6-1.2,8.3-0.5c0.7,0,1.2,0.5,2.9,0.5c1.2-0.2,2-0.5,1.7-0.5h0.7h3.9h2c0-0.2,0.2-0.5,1-0.5
		c2,0.7,3.2-2.2,2.4-4.9c-0.7-0.7-0.2-3.2,1.5-2.4c0,0.2,0.2,0.5,0.5,0.5h0.5c0-0.7-0.2-1-1-1c-0.7-0.7-1-1.2-1-1.5l1,0.5
		c0.2,0,0.5-0.2,0.5-0.5v-0.5v-1c0.7-1.7,2-0.7,2-2.4c0-0.5,0-0.7,0.2-1c0-0.2,0-0.2,0.2-0.5v-0.5c1.7,0,0.7-1,1.5-2.9
		c0.7-1.7-0.2-2.4,1.5-2.4c0.2,0,0.5-0.2,0.7-0.5c0.2-0.2,0.2-0.2,0.2-0.5c-0.7-0.7,0-0.7,0,0c0.7,0,1-0.2,1-0.5v-0.2
		c0,0.2-0.2-0.2-0.5-1.2v-1c0-0.7,1.2-2.2,2-1.5l0.5-0.5c0.5,0,0.5-0.5,0-1.5c0.5-1.7,0.7-2.7,1-2.4c0.7,0,1-0.5,1-1.5
		c-0.7-0.7,0.2-2.2,1.2-3.9c0.7-0.7,1.5-1.7,2.2-2.9c0.2,0,0.5-0.5,0.5-1.5c1-1,1.5-2,1.5-2.9v-1l0.5-0.5c0.7,0.7,1-0.2,1-2.4
		c0.7-1.7,0.7-3.2,2.4-3.9c0.7,0,1.2-0.7,0.5-1.5c0-0.7,1.5-4.2,3.4-5.9c0.2,0,0.5-0.2,0.5-0.5v-2c0-0.7,1.2-2.7,2.9-5.4
		c0.7-0.7,0.2-1.7,1-2.4l1-1.5c0-0.2,0.5-1,1.5-2c2-2,6.1-15.2,8.8-21c2-1.7,2.2-3.2,2.9-4.9c2-2,0.7-2-1,0
		c-1.7,0.7-4.4,3.7-8.3,6.4c-10.5,8.6-21.8,16.9-33.3,28.4c-2,1.7-5.6,4.2-8.3,7.8l-16.2,14.2c-5.6,6.6-14.4,14.4-19.1,19.1
		l-6.4,5.9l-2.4,2c-0.7,0.7-1.2,1.2-2,2.9c-1,1-1.7,1.5-2.4,1.5h-0.5c-0.2,0-0.5,0.2-0.5,0.5c-1.7,2.7-3.9,4.6-5.9,6.4
		c-1.7,0.7-3.4,2.7-3.4,3.4c0,0.2,0.2,0.5,1,0.5H295.5z M303.3,138.8h1c0.7-0.7,0-0.2-1-1c-0.7,0-2.7,0.5-3.4,0.5h-2.9h-0.5
		c0,1.7,2,1.2,3.9,0.5H303.3z M302.5,118c0.5-0.5,0.7-1,0.7-1.2c0.7,0,1-0.2,1-0.5h0.5h-0.5c-0.2,0.2-0.7,0.5-1.5,0.5
		c-1.7,1.2-2,1.7-1,1.5C302.1,118.2,302.3,118.2,302.5,118z M321.9,138.8c3.7,0.7,6.9-0.2,6.9-1h-0.5c-0.7,0-2.9-0.5-4.9-0.5
		c-2.7,0.7-6.6-0.2-9.3,0.5c-3.7,0-4.6-0.7-5.4,1l-1-0.5c0,0.7,2.2,0.5,3.9,0.5C313.6,139.5,318.2,138.8,321.9,138.8z M318.9,142.2
		c0-0.2-0.2-0.5-0.5-0.5H316c-1.2,0-2,0.2-2,0.5c0.2,0.2,1.2,0.5,2.9,0.5C318.7,142.7,318.2,142.2,318.9,142.2z M318.9,100.6
		c-0.2,0-0.5,0.2-0.5,1c-0.2,0-0.5,0.2-0.5,0.5c0.2,0,0.7-0.2,1.5-1C319.4,100.9,319.2,100.6,318.9,100.6z M327.8,142.7h0.5
		c0.7-1.7-0.2-0.7-2-1.5c-0.2,0-1,0.2-2,0.5c-0.2,0.2-0.7,0.5-1,0.5c0,0.7,1.7,0.5,2.4,0.5H327.8z M327.8,188.2
		c0-0.7,0.2-1.2,0.5-1.5l0.5-0.5c0.7,0-0.2-1,1.5-1c0-1.7,0.2,0-0.5,2c-0.7,1.7-1,1.2-1,2c-0.2,0.2-0.5,0.7-0.5,1l-0.5,0.5
		c-0.2,0.2-0.5,0.7-0.5,1c-0.7,1.7-0.7,1.7-1.5,2.4l-1-0.5l0.5-0.5c0.7-0.7,1-0.2,1-1C327,190.4,327.8,189,327.8,188.2z M328.7,91.8
		c-0.7,0-0.7,0.2-2.4,1c-1.7,2-1.5,3.2,0.5,1.5C328.5,92.5,328,93.5,328.7,91.8z M332.2,138.8c1.7,0.7,4.2,0,6.9,0
		c2,0,5.6,0.2,7.3-0.5c2,0.7,3.7,0.5,4.4,0.5c0-0.2-0.2-0.7-0.5-1l-2.9-0.5c-2,0.7-9.3-0.2-15.2,0.5c-1.7,0-2.4,0.2-2.4,1H332.2z
		 M330.7,182.4h1c0,1-0.2,1.5-1,1.5V182.4z M333.1,184.3l-0.5,1l-0.5,0.5c0-1,0.2-1.7,1-2.4C333.9,181.4,334.9,182.4,333.1,184.3z
		 M336.6,85c0-1.7,0.2-0.2-1.5,0.5c-2.7,2-2.7,2.7-1,1C335.8,86.2,336.6,85.7,336.6,85z M334.1,173.5h0.5c0.2,0,0.5,0.2,0.5,1h-0.5
		L334.1,173.5z M336.1,171.1c0.2-0.2,0.5-0.2,0.5,0c0,0.7-0.2,1.2-0.5,1.5V171.1z M336.6,169.1v-0.5c0.2,0,0.7,0.2,1,0.5v0.5h-1
		V169.1z M340,186.3c-1.2,1.2-1.7,2-1,2c0,0.2,0.2,0.2,0.5,0c0.2,0,0.5-0.2,0.5-1V186.3z M339.5,163.3h1c-0.7,0.7-0.2,1-1,1V163.3z
		 M341.9,142.7c0.2-0.2,0.2-0.5-0.5-0.5c-0.7,0-1.7-0.7-1,0c0,0.2,0.2,0.5,0.5,0.5H341.9z M341.9,180.9l-1,1h-0.5l0.5,0.5
		c0.7,0,1-0.2,1-0.5V180.9z M346.4,76.1c0-1.7-1.2-0.7-2,1c-3.7,2.7-3.7,2.2-2.9,2.9c0.7,0,0.7-1.2,2.4-2L346.4,76.1z M341.9,169.1
		v1V169.1z M343.4,176l-1,0.5v0.5h0.5c0.2,0,0.5-0.2,0.5-0.5C344.2,176.5,344.2,176,343.4,176z M344.4,162.8l1.5-1l0.5-1.5l-0.5,1.5
		c0,0.7-0.2,2-1,2c-1.2,0.5-1.5,0.2-1-0.5L344.4,162.8z M349.3,68.8c1.7-0.7,4.6-3.7,3.9-4.4l0.5-0.5l1-0.5c0.7-1,1.2-1.2,2-0.5
		c1,0,1.5-0.2,1.5-1c0-0.2-0.2-0.5-0.5-0.5V61l0.5-0.5c1-1,1.2-1.5,1-1.5l0.5-0.5l1-1c0.7,0,0.2,0.5,1,0.5h0.5
		c0.2,0,0.5-0.2,0.5-0.5c0.2-0.2,0.7-0.5,1.5-0.5c0-1.7,3.2-4.6,4.9-5.4c1.7-1.2,2.4-2,2.4-2.4v-0.5c0.7,0.7,3.4-1.2,3.4-2
		c-0.7,0,0.2-0.2,2-2c0.7-0.7,1.2-1,2-1l0.5-0.5c-0.5-0.5,0.2-1.2,2.4-2.4l1-1l1-1c0-0.7,0.2-0.2,1-1c0.7,0,1-0.2,1-1
		c-0.2-0.2-0.2-0.5,0.5-0.5c0,0.5,7.8-5.1,7.8-6.4c1.2-0.7,2-1,2.4-1c0.2,0,0.5-0.2,0.5-0.5v-0.5c-0.7-0.7-0.5-1,0.5-1
		c0.7,0,1-0.2,1-0.5v-0.5h0.5c0.7,0,1.2-0.2,1.5-0.5c1.7,0,2.7-1.5,4.4-3.4c2-1.7,3.2-2.7,2.4-2c1,0.5,1.5,0.2,1.5-1
		c1.7-0.7,1.2-1.5,2-1.5c1.2,0,2.7-1,4.4-2.9c2-2.7,1.7-2.7-2.9,1c-6.6,3.9-33,25.7-41.6,32.3c-7.8,6.6-26.4,22.3-26.4,23.5l1,0.5
		c0.2,0,1-0.5,2-1.5C347.6,70,347.6,69.5,349.3,68.8z M347.3,148.6l-1.5,2v0.5c-0.2,0-0.2,0-0.2,0.2c0,0.2-0.2,0.5-0.2,0.7l-0.5,0.5
		v0.5c-1.2-0.7-1-1.5,0.5-2.4L347.3,148.6z M346.4,141.7h-0.5c-0.2,0-0.7-0.2-1-0.5c0,0.2,0.2,0.7,1,1.5L346.4,141.7z M346.8,169.1
		h-0.5v0.5v0.5c0,0.2,0.2,0.5,0.5,0.5v-0.5c0-0.2,0.2-0.5,0.5-0.5C347.3,169.4,347.1,169.1,346.8,169.1z M347.8,167.7
		c0.2,0,0.5-0.2,0.5-0.5c0.7-0.7-0.5-0.7-0.5,0c-1.7,1.7-1.7,1.2-1,0.5H347.8z M350,72c0,0.2,0,0.2-0.2,0.2l-1,0.5
		c-2,1-2.2,1.5-1,1.5h0.5c0.2-0.2,0.5-0.7,0.5-1L350,72z M348.8,156.4c-0.2,0.2-0.5,0.5-0.5,0.7v0.2c0,0.2,0.2,0.5,0.5,0.5v-0.5
		V156.4z M350.3,162.3c0.7-1.7,0.7-1,1.5-1c0,0.7,0.5,1.2,0.5,0.5l0.5-0.5c0-0.7-0.7-1-2.4-0.5v0.5V162.3z M352.7,158.9l0.5-0.5
		c0-0.2,0-0.5,0.2-0.7c0-0.7,0.2-1,0.2-1.2c-0.7-0.7,0.2-1.2-1.5,0.5c0,0.7-1,1.2-1,2.9c-0.7,0.7-0.2,0.7,1,0
		C352.2,159.6,352.5,159.1,352.7,158.9z M353.2,138.8l0.5-0.5v-0.5c-0.7,0-1,0.2-1,1v0.5L353.2,138.8z M354.7,132.4
		c0.2-0.2,0.7-0.2,1,0c0,1.2-0.2,1.7-1,1V132.4z M357.1,129.5c-0.2,0-0.5,0-0.5-0.2V129h-0.5v0.5H357.1z M361.5,130.5H361
		c-0.2,0-0.5-0.2-0.5-0.5c-1.7,0-1.2,2.4-0.5,4.4l-1-0.5c0.7,2,0.7,0.7,2.4-2C362.5,130.5,362.5,130,361.5,130.5z M364.5,127.5V127
		H364c-0.7,0-1,0.2-1,0.5c-0.2,0.2-0.2,0.5,0,0.5c0,0.2,0.2,0.5,1,0.5L364.5,127.5z M365.9,125.1l0.5-0.5c-0.7-0.7,0.7-3.7,1.5-2.9
		v-1c0-0.7-0.7-0.2-2,1l-2.4,2c0,0.7-0.5,0.2-0.5,1h0.5c0.2,0.2,0.2,0.2,0.5,0.2c0.2,0.2,0.5,0.2,1,0.2H365.9z M364.5,123.1
		c0.2-0.2,0.5-0.2,0.5,0.5v1c-0.2,0-0.5-0.2-0.5-0.5V123.1z M367.4,56.1c-0.2,0-0.7,0.2-1.5,1l-1,0.5c0,0.5,0.7,0.5,2,0
		C368.9,55.6,370.1,54.1,367.4,56.1z M365,138.3h1c0.7,0,1.2,0.2-0.5-0.5C365.2,137.8,365,138.1,365,138.3z M365.9,110.4v0.5v0.5
		c1.5-0.7,1.7-1,0.5-1C366.2,109.4,365.9,109.4,365.9,110.4z M377.2,137.8h-5.9c-1.7,0-2.9-0.2-3.9,0.5h2c0.7,0,2,0.5,3.9,0.5
		C379.1,138.8,383.1,137.8,377.2,137.8z M369.4,117.3v-0.5h-0.5c-0.7-0.7-0.2,0.2-1,1c-0.2,0.2-0.2,0.5-0.2,0.7c0,0.2,0,0.2,0.2,0.2
		v0.5c0.2,0,0.5-0.5,1-1.5L369.4,117.3z M368.9,106.5l-1,1h1V106.5z M369.8,115.3c-0.7-1.7-0.5-1.2-0.5-0.5c0,1.7-0.7,1.7,0,1h0.5
		V115.3z M373.3,107c-0.7,0.7-2.2,3.9-2.9,5.9c-0.7,0.7-0.2,1.2,0.5,0.5C371.8,112.4,376,106.2,373.3,107z M370.6,53.9l-0.2,0.2
		l0.5-0.5h0.2c0.2,0,0.5-0.2,0.7-0.5L370.6,53.9z M376.7,100.1c-2,2-2.2,3.2-1,3.9c0.5,0,1-1.2,1.5-3.9H376.7z M379.1,46.8h-0.5
		c-1.7,0.7-2.2,1-0.5,1h0.5v-0.5L379.1,46.8z M377.7,48.2h0.5c0-0.7,0.2-0.2,1-1C377.7,48,377.2,48.2,377.7,48.2z M381.1,141.7
		c-1-0.5-1.5-0.5-1.5,0h0.5c0,0.2,0,0.2,0.2,0.2c0.2,0.2,0.5,0.2,0.7,0.2c0.2,0,0.5-0.2,0.5-0.5H381.1z M384.5,41.9l-1.5,0.5h0.2
		C383.1,42.4,383.6,42.1,384.5,41.9C386.2,41.1,386.2,39.9,384.5,41.9z M386,73.2h-0.5c-0.7,1.7-0.7,1,0,1
		C385.8,74.2,386,73.9,386,73.2z M390.9,64.4c-0.2,0-0.5,0.2-0.5,0.5c0,0.2,0.2,0.5,0.5,0.5h0.5c0.2,0,0.5-0.2,0.5-1H390.9z
		 M394.8,58.5V58l-1,1h-0.5c0,1,0.2,1.2,1,0.5C394.3,58.8,394.8,59.3,394.8,58.5z M411.5,33.1c-0.5-1-0.5-1.5,0-1.5
		c0.7,0.7,2.7-0.2,1-2c-0.2-0.2-0.2-0.5,0-0.5c1,0,1.5-0.2,1.5-1c-0.5-0.2-1.2-0.2-2.4,0c-1.2,0.7-1.5,1.5-1,2.4c-0.7,0-2,1-3.4,2.9
		c-2,3.9-2.2,4.6-0.5,3.9c1,0,1.2,0.2,0.5,1c-0.7,2.9-0.2,2.4,2-1.5L411.5,33.1z"/>
	<path class="st1" d="M399.2,186.8c-5.6-1.7-10-8.1-10.8-14.7c0-1.7-0.5-2.2-0.5-2.9c-0.5-0.5-0.5-2.7,0-6.4
		c0.7-4.6,0.7-5.9,2.4-9.8c1.7-2,2.4-4.2,2.4-4.9c0.7-2,5.6-12.2,16.2-25.9c1.7-2.2,2.4-3.4,2.4-3.9c0-0.2,0.2-0.7,1-1.5
		c0.7-0.7,2.2-2.2,2.9-4.9c1.7-2,3.7-4.9,4.4-6.9c2-2.2,2.9-3.7,2.9-4.4l2.4-2.9c0.5-1.5,1.2-2.2,2.4-2c2.9,0,9.5,7.6,8.8,8.3v0.5
		c0,0.7-0.5,1.2-0.5,2c0,2.9-1.2,5.1-3.4,6.4c-1.2,0-13.7,17.6-13.7,18.1c0,0.7-0.2,0.2-1,1c-2,1.7-3.7,4.2-2.9,4.9
		c0,0.2-0.2,0.2-0.5,0c-0.5-0.5-1-0.2-1.5,1c0,0.5-0.2,1.2-1,2.4l-2,1l-0.5,1.5l-1,2.9c-3.9,6.6-9.5,16.6-10.8,20.6
		c-1.7,2.7-2.2,7.6-1.5,9.3c0.7,0.7,0.7,1,2.4,1c3.7,0.7,7.1,0.2,6.4-0.5c-0.2-0.2-0.2-0.5,0.5-0.5c0.5,1.2,25.9-14.4,29.9-17.6
		c1.2-1.2,2.4-2.2,3.7-3.2l1.7-1.2c1,0,6.4-3.9,6.4-4.9c0-0.7,3.2-4.2,6.9-7.8c4.6-4.6,6.1-4.6,4.4-1c-1.7,2-1.7,2.7,0,1
		c2.7-3.7,1.7-1.7-1,2c-2,2-2.7,2.9-2.4,2.9c0,0.2-0.7,1.2-2,2.4c-1,1-1.2,1.5-1,1.5c0,0.7-1.2,1.7-2.9,4.4c-2,2-2.9,4.2-2.9,3.4
		c0.7-0.7,0.7,0.2,0,1c-0.7,0.7-0.2,1-1,1h-0.5c-0.2-0.2-0.5-0.2-0.5,0c0.2,0-0.2,0.7-1.5,2c-2.7,3.7-3.2,4.2-2.4,3.4
		c2-1.7,0.2,1-4.4,4.9c-5.4,5.4-20.1,15.4-26.4,16.6c-1.7,0.5-2.9,1-3.4,1.5c-0.7,0.7-3.9,0.7-3.9,0
		C402.2,187.5,401.2,187.2,399.2,186.8z M396.3,148.1l-2,2.4c-0.2,0.7-0.7,1.5-1.2,2l-0.7,1c0,0.2,0.5,0,1.5-0.5
		C394.3,152.5,396.8,148.1,396.3,148.1z M402.2,137.8c0-0.5-0.2-0.2-1,0.5c-1.7,2-1.7,3.2,0,1.5C401.9,139,402.2,138.5,402.2,137.8z
		 M404.1,135.4l1.5-2l2.9-5.9c0.7,0,1.2-2,2.9-3.9c5.1-8.6,11.3-17.1,12.2-18.1c1.2-0.7,1.5-1.5,1-2.4c0.7-1.7-2.7,2.2-6.4,8.8
		l-2.9,4.4c-1.2,1.2-12.7,19.8-12.7,20.6v-0.5L404.1,135.4z M434.9,161.8c-0.7,0.7-1,1.2-1,1.5c0,0.7,2.4-1.2,2.4-2
		C436.4,161.1,435.9,161.3,434.9,161.8z M448.2,151c-0.2,0-0.7,0.2-1.5,1c-2.7,2.7-6.1,5.9-6.9,5.9c-0.2,0-0.5,0.2-0.5,0.5
		c0,0.7-0.2,1-1,1s-1,0.2-1,0.5c0.7,0,3.2-1.2,5.9-3.9C449.1,151.3,450.9,149.1,448.2,151z M447.2,65.4c5.9-9.8,8.6-13.5,12.2-14.2
		c0.5-0.5,1.2-0.5,2,0c0.7,0-0.7,2,0,2c0.7,0.7,2.2-0.2,2.9,0.5c0.7,0.7,2.2-1.7,2.9-1c0.7,0.7-1.5,3.7-1.5,4.4c0,0.7,1,1.2,1,2
		s0.7,0.7,0,1.5c0,0.7-0.5,1.5-1.5,2.4l-1.5,2.4c-0.7,1.7-1.2,1.7-2,2.4c-0.7,0.7-2.9,2.2-4.9,4.9l-6.4,7.8
		c-2.7,3.7-3.2,3.2-5.9,3.9c-2.7,0.7-2.7,1-4.4-1C438.6,81.5,441.3,74.9,447.2,65.4z M444.2,74.2c0,0.5-0.5,1.5-1.5,2.9l-1,2.4
		c1,0,4.2-4.6,3.4-5.4c0.7-0.7,1.2-1,1.5-1V73c0-0.2,0.2-0.5,0.5-0.7c-0.5-1-0.2-1.5,0.5-1.5c0.7-0.7,0.7-1.2,0-2
		C445,72.5,444,74.2,444.2,74.2z M452.1,62.9c0-1.7-0.7-1-1.5,1c-2.7,2.7-2.7,4.2,0,2.4C451.3,64.4,452.1,64.6,452.1,62.9z
		 M452.1,148.1v-0.5c0-0.2-0.2-0.2-1,0.5c-2,2-2,2.9,0,1L452.1,148.1z"/>
	<path class="st1" d="M443.8,158.9c1.7-4.6,4.9-12,6.9-15.7l2-3.9c0-0.7,0.5-1.5,1.5-2.4v-1l0.5-0.5l0.5-1.5c0.7-0.7,1.2-1.2,2-2.9
		c0.7-0.7,0.7-1.7,1.5-3.4l4.4-6.4l6.4-10.3c1.7-2.7,3.2-5.6,4.9-7.3c1.2-1.7,2-3.2,2-3.9c0-0.7,0.7-0.7,1.5-1.5c0-0.7,1-1,2.9-0.5
		c1.2,0.5,2,0.7,2,1v0.2c0,0.2,0.2,0.5,0.5,0.7c0.7,0,1.7,0.7,2.4,2c1.7,2,1.2,2.4,0.5,4.4c0,1.5-0.7,3.2-2.4,5.4l-3.9,5.4
		c-0.5,1.7-1.7,3.7-3.4,5.4l-6.4,9.8c0,0.7-0.2,1.2-1,2c-2.7,3.4-10,17.4-12.7,25.5l-0.5,2l1.5-2c1.2-0.5,2-1.2,2-2l1.2-1.5l2.7-2.9
		l6.9-7.8l5.9-6.4l6.9-7.8c4.9-7.1,8.3-9.3,13.2-14.2c9.5-9.8,15.2-14.9,17.1-16.6c0.7-0.7,1.7-1.7,2.4-3.4l1.5-2.4
		c0.7-0.7,1-1.2,1-2c0-1.7,1.7-2.4,2.4-2.4l0.5,0.5l2,1.5c1.7,0.7,2.7,2.7,3.4,3.4l2,2.4c0.2,0,0.5,0.2,0.5,1c0,1-3.9,7.8-4.9,8.8
		c-0.7,1.7-1.7,3.7-2.9,5.4l-8.3,13.7l-6.4,11.3c-1.5,2.4-1.5,2.7,0,1l3.4-2.9c2-0.7,3.2-2,3.9-3.4l13.7-12.7c0.7,0,5.4-4.2,6.4-5.9
		c2.4-2.4,2.9-3.9,9.3-8.3c7.3-5.4,10.8-6.4,10.3-2.9c0,0.7,0.2,0.2,1,1c0.7,0.7,1,0.2,1,1c-0.2,0.2,0.2,0.5,1.5,0.5
		c1.2,0.7,1.5,1,1,1c-0.2,0.2-0.2,0.7,0.5,1.5c1.7,1.7,0.2,4.6-3.4,11.3l-5.9,9.3c-1.5,2.9-2.4,4.4-2.9,4.4c-0.7,0-1,0.2-1,1
		c0,0.2-0.2,0.7-1,1.5c-2.2,2.2-19.3,34.5-25.9,46.5c-5.6,11.7-7.3,14.9-7.3,17.6c-1.2,3.9,0.7,3.7,0,4.9c-2.7,5.9-1,5.1-1,6.4
		c0.7,3.9-0.5,2.9-2.4,1c-0.7-0.7-1.2-1-2-1l-0.7-1.2l-1.7-2.2l-2-3.4l0.5-3.9c0.5-2.7,1-4.4,1.5-4.9c0.7,0,0.7-2,1.5-3.9
		c0-0.5,0.2-1.5,0.5-2.7c0.2-0.7,0.2-1,0.5-1.2l1-2c1.7-2.7,4.2-9.8,5.9-12.7c0.7-1.5,1-2.7,1-3.4c0.7-0.7,0.7-2.9,2.4-4.9
		c1.7-2,1.7-4.2,2.4-4.9c0-1,0.2-1.7,1-2.4c0.7-0.7,2.2-3.2,3.9-6.9c6.6-12.5,12.2-20.8,14.2-23.5c0.7-0.7,1-1.2,1-1.5
		c0.5-1.5-0.7-0.7-3.4,2c-1.7,1.7-2.9,3.2-4.9,3.9c-2.7,2.7-4.9,4.7-4.9,5.4c0,0.2-0.2,0.5-1,0.5c-0.2-0.2-0.7-0.2-1.5,0.5
		c0,0.7-0.2,1-1,1c-0.7,0-1.2,1.2-2,2l-1.2,1.5c-0.2,0.2-0.2,0.2-0.2,0.5c-0.2,0-0.7,0.2-1,0.5c0,1.2-15.4,16.2-18.6,16.2
		c-0.7,0.7-1.7,0.5-3.4,0.5c-2.2,0-3.2-0.7-3.4-2.4c-0.7-3.7,0.5-7.1,0.5-5.4l1-6.4l2.9-8.3l4.4-9.3l-10.8,12.2
		c-0.7,0.7-2.2,2.2-2.9,3.9c-0.7,1.7-1.7,2.7-2.4,3.4c-2.4,1.2,1.2-2.7-2.9,2l-5.4,6.9l-5.9,5.9l-5.9,6.9c-2,2.2-2.9,3.7-2.9,3.9
		c-0.2,0.2-0.7,0.5-1,0.5c-0.5,0-1,0.7-1.5,2c-0.7,1.7-2.2,2.4-4.9,4.4l-3.9,2.9c0.2,0.2-0.2,0.5-2,0.5c-1.7-0.7-2.9-1.7-3.4-2.4
		c-0.7-1.7-1.7-2.4-2.4-2c-0.5,0-1-0.7-1.5-2.4c-1.7-2-1-3.9,1-9.8L443.8,158.9z M462.6,159.3c0.2,0,0.5-0.2,0.7-0.5
		c0.7-1,0.2-1.2-0.5-0.5c-0.2,0.2-0.5,0.7-0.5,1H462.6z M464.8,156.4h0.5l0.5-1c0.2-0.2,0.5-0.7,0.5-1l-1,1
		c-0.2,0.2-0.5,0.5-0.5,0.7V156.4z M470.7,150c0-0.2-0.2-0.2-1,0.5c-1,0.5-1.5,1-1.5,1.5c0,0.2,0.2,0.2,1-0.5
		C470.2,151,470.7,150.5,470.7,150z M473.1,145.6c-0.7,1.7-2,2.2-2,2.9c0,0.2,1-0.5,2.9-2.4C476.8,142.5,476.8,142,473.1,145.6z
		 M477,142.2c0.2,0,1-0.5,2-1.5l2.9-3.9l2-2l2-2.4l2-2.4l2-2c0.7-0.7,1-1.2,1-2c0-0.2-0.2-0.2-1,0.5c-0.7,0.7-1,1.2-1,1.5
		c0.2,0.2,0.2,0.5-0.5,0.5c-1,0-1.5,0.2-1.5,1c0,0.7-0.2,1-0.5,1c-0.7,0-1.5,0.7-2,2.4c-0.7,1.7-2,2.2-2,2.9l-6.4,6.4
		c-0.2,0.2-0.2,0.5,0.5,0.5L477,142.2z M491.7,124.1c-0.7,0-1,0.2-1,1c-0.7,1.7,1.2,1.2,2-0.5C492.7,123.6,492.5,123.4,491.7,124.1z
		 M494.2,121.7c0-0.7-0.2-0.5-0.5,0.5c-0.2,0.2-0.2,0.5,0,0.5C493.9,122.6,494.2,122.4,494.2,121.7z M503.5,112.8c0.7-0.7,0.7-1,0-1
		c-0.5,0-1.7,1.2-3.9,3.9c-3.7,2.4-6.6,7.6-3.4,4.4L503.5,112.8z M503,198.5c0.2-0.2,0.5,0,0.5,1v1.2c0.2,0,0.2,0,0.2-0.2
		c0-0.2,0-0.7,0.2-1c0.2-0.2,0.5-1,0.5-2c-0.7-1.7-0.7-1.7,0-1c0.2,0,0.7-0.2,1-0.5c1.7-4.7,4.2-11,4.9-11.7
		c1.5-0.5,1.7-1.2,0.5-2.4c0-0.2,0.2-0.5,0.5-0.5c0.7,0.7,1,0.2,1-1c0-1.2,0.5-2,1.5-2.4c0.7-0.7,0.2-1.2,1-2.9
		c-0.5-1.2-0.2-2,0.5-2c0.7,0.7,2.2-3.2,2.9-4.9c2-3.7,2.7-4.4,3.4-6.4c0-1.7,0.2-2.4,0.5-2.4c0.7,0.7,2-2.7,2-3.4
		c0-0.7,0.2-1.7,2-3.4c3.7-5.6,4.2-8.3,5.9-10.3c0-1,0.5-2,1.5-2.9c1-1,1.2-1.5,1-1.5c-0.2,0-0.2-0.2,0-0.5c0.7-0.7,1-1.2,1-1.5
		c-0.7-0.7-0.7-1,0-1c0.7,0,1.7-0.7,2.4-2c0.5-1.2,0.7-2,1-2c0.7-0.7,0.7-1.7,1.5-3.4l2-5.4c0.7-2-1.7,2.2-5.4,7.8
		c-1.7,2-1.2,2.7-2,3.4l-3.4,5.4l-3.9,6.4L524,151l-3.9,7.3c-2.7,4.6-5.1,9.5-5.9,11.3c0,0.5-0.2,1.2-1,2.4
		c-0.7,0.7-1.5,2.4-2.7,5.6c-0.7,1.2-1.2,2.7-1.7,4.6c0,0.2-0.2,0.7-0.5,1c-0.5-0.5-3.4,8.3-3.4,10.3c0,0.7-0.5,1.2-0.5,0.5
		c-0.7,0-0.2,0.2-1,1v0.7c0-0.2-0.2,0.5-0.5,1.7V198.5z M512.3,104c1,0,5.6-5.9,4.9-5.9c0.7-1-2.2,1.2-7.8,7.8
		c-2.7,2.7-4.9,4.6-4.9,5.4c0,0.7,3.4-2.2,3.4-2.9S510.6,104.8,512.3,104z M510.3,136.8c0.7,0.7,2.2,0.2,1.5-0.5h0.5
		c0-0.7,0.2-0.2,1-1c2-0.7,2.2-0.5,0.5-0.5c-0.7,0.7-1.2,0.7,0.5-1l2.9-1.5c0.7,0,1-0.2,1-0.5c0-1.2,0.2-1.7,1-1c1,0,1.2-0.2,0.5-1
		c-1.2,0-1-0.5,0.5-1.5c0.7-0.7,2.7-1.2,3.4-2.9l3.4-2.4c1.7,0,1.7-0.5,1-0.5c0-0.7,0.2-1,1-1c0.7,0,1-0.2,1-0.5
		c-0.7-0.7,0.5-2,3.4-3.9c2-0.5,2.4-1,1.5-1.5c0-0.7-1,0-2.9,2c-5.4,4.9-8.6,7.3-9.8,7.3c0.5,0.5,0.2,1-0.5,1.5l-2.9,2.4
		c-1.5,1-2.2,1.5-2.4,1.5c0-0.7-1,0.2-1,1c-0.7,1.7-2,2.9-3.4,3.4C511.1,135.6,509.6,136.1,510.3,136.8z M538.2,114.8
		c0-0.2,0.7-1.2,2.4-2.9c0.7-0.7,2-1.7,2-2.4c-0.2,0-0.7,0.2-1.5,1c-0.5,1.2-1,1.5-1.5,1c-1.2-0.7-2-0.2-2,1.5
		C537.7,113.8,538,114.6,538.2,114.8z"/>
	<path class="st1" d="M553.9,250.4c-1-1-1.5-1.2-1.5-0.5c-0.2,0.2-1-0.7-2-2.9c-0.7-1.7-1.7-3.4-2.4-3.4c-1.7,0-2.2-3.7-1.5-7.3
		c0.7-1.7,0.2-2.2,1-2.9c0.5-0.5,1.2-2.2,2-5.4c1.7-2,1.7-4.4,2.4-4.4l1-1.5c0.2-1.2,0.7-1.5,1.5-1v1c0,0.2,0.2,0.5,0.5,0.5
		c0.5,0,3.4-5.9,3.4-6.4c-0.2-0.2-0.2-0.5,0-0.5s0.5-0.2,0.5-0.5c-0.5-0.5-0.2-1.2,0.5-2c2-0.7,2.7-2.7,2-4.4c0-0.7,0.2-1,1-1
		c0.5,0,1-0.5,1.5-1.5c0.5-1.2,0.7-2,1-2c0.7,0,2.7-3.7,2-5.4c-0.2-0.2,0-0.5,1-0.5c0.7,0,5.4-7.6,5.4-8.8l1-1.2
		c0.7-0.7,1.2-2,2-3.2c4.4-6.4,3.7-5.9,2-5.4l-2,0.5l2-3.4l1-2l0.5-1c-0.5,0-0.2-0.2,1-1c0.7,0,1-0.2,1-1l0.5-0.5c-0.7,0,0-1,2-2.9
		c2-3.7,3.4-5.1,7.3-10.8c0.7-1.7,2-3.4,3.9-5.4c0.7-1.7,2.4-2.7,2.4-3.4c1-1,1.7-1.5,2-1.5c0.2,0,0.2-0.2,0-0.5
		c-0.2-0.2,0-0.5,0.5-1c0.7-0.7,0.7-1,0.5-1l-8.3,5.9c0,0.5-1.5,1.7-4.4,3.4l-4.4,3.4c-4.7,3.9-13.7,8.1-19.6,8.8
		c-2.7,0.7-2.7,0.2-3.4-0.5c-0.7-0.7-1.2-1-1.5-1c-0.7,0-1-0.2-1-1c0-1.7-2.2-5.1-2.9-5.9v-2.4c0.7-1.2,1-1.5,1-1
		c0.2,0.2,0.5,0,1-0.5c0.5-0.7,0.5-1.5,0-2V152v-0.5l0.5-0.5c0-0.2,0.2-0.5,1-0.5c-0.7-1.7-0.7-2.4,0-2c0.7,0.7,1.2,0.2,0.5-0.5
		c-0.7-0.7-0.5-1,0.5-1v-0.5v-0.5c0.2,0,0.5-0.2,0.5-1c-0.7-0.7-0.5-1,0.5-1l1-1c-0.5-0.2-0.2-1.2,0.5-2.4c0.7-1.7,1.2-1.7,0.5-1
		c-0.7,0.7-1.2,0.2-0.5-0.5v-1.2l0.2,0.2c0,0.2,0,0.2,0.2,0.5c0.2,0,0.7-0.2,1.5-1c0-1.2-0.2-2-1-2c-0.7,0-0.7-0.5,2-4.4
		c5.4-6.6,14.9-20.1,20.1-26.9l6.4-6.9c1.7-2.7,1.2-2.7,4.9,0c3.7,2,5.1,4.4,4.4,7.3l-5.4,5.9l-8.3,8.8l-4.4,5.9
		c-3.2,3.2-13,19.1-15.7,25.9c-1.2,2.9-1,3.4,8.3-2c0.7-0.7,1.2-0.7,2,0c0-0.7-0.2-1.5,8.3-7.3l6.9-5.4l7.3-5.4l5.9-4.4
		c2-2,4.9-3.7,6.9-5.4c2.7-2,4.7-4.2,6.4-4.9c1.2-1.2,3.4-2.9,6.4-4.9c17.1-13.2,20.1-15.2,24.5-19.6c1.5-2.4,2.7-3.4,3.9-2.9
		c1,0,1.5,0.2,1.5,0.5c0,0.7,0.2,0.7,1,0c1.5,0,2.4,1,2.9,2.9c0,1,0.2,1.5,0.5,1.5c0.7,0.7,1.2,0.7,0.5,0c-0.7-0.7-0.7-1,0-1
		c1.7,0,2.2,3.7,0.5,4.4v1c0,2-3.2,5.1-13.7,13.7c-9.8,8.6-19.3,17.4-25.9,25l-3.9,4.4l-2,2.4c-1.2,2-7.8,9.3-7.8,10.3
		c-0.5,0-1.7,1.5-3.4,4.4c-2,2.7-3.7,5.6-5.4,6.4c-1,1-1.5,1.7-1.5,2c-0.2,0.2-0.5,0.7-0.5,1c0,0.7-0.7,1.7-2.4,3.4
		c-1.7,2.7-2.4,4.2-2.4,4.4c0,0.2-0.2,0.5-1,0.5c-0.5,0.5-0.7,1-1,1.5l-2.4,3.4l-3.4,4.9c-0.7,0.7-1.2,1.2-2,2.9c-0.5,1.2-0.7,2-1,2
		c0,1-6.4,10.3-11.7,19.6c-6.6,12.7-12.5,25.2-14.2,31.8c-0.5,2.2,1.2,2.9,5.4,2.4c3.9-1.7,4.9-1.7,4.9,1c0,0.7-0.2,1-0.5,1v0.5
		l-0.5,0.5c0,1-0.2,1.5-0.5,1.5c-0.7,0.7-1,1.2-1,2c0,1.7,0.2,1-3.4,1C555.1,252.3,555.6,252.1,553.9,250.4z M554.9,223.5h-1
		c-1,0-1.5,0.2-1.5,1c0,0.7-0.5,0.2-0.5,1v0.5c-0.2,0-0.5,0.5-1,1.5c0,1.7,0.2,2,1,0.5C553.9,227.1,554.9,225.7,554.9,223.5z
		 M551.4,234.2c-0.2,1-0.5,1.7-0.5,2s0.2,0.2,1-0.5C552.7,233.7,552.4,233.3,551.4,234.2z M557.8,223.5c0.2,0,0.5-0.2,0.5-1
		c0-0.7,1-2.7,1-3.4c0.7,0,1-0.2,1-1s0.2-1.2,1-2c0.7-1,1.2-1.2,0.5-2c-1.7-0.7-1.2-0.2,0.5-1c1,0,1.2-0.2,0.5-1
		c0-0.2,0.2-0.7,1-1.5c1-1,1.5-1.7,1.5-2c-0.5-0.7-0.2-1.7,0.5-2.4c0.7-0.7,2-2.2,2-2.9l0.7-1c0.2-0.2,0.2-0.2,0.2-0.5l0.5-0.5
		c0.2,0,0.5-0.2,0.5-1c0-0.7,0.5-1.5,1.5-2l1-1c-0.2-0.2-0.2-0.5,0-0.5l0.5-1c0.2-1,0.5-1.7,0.5-2l2-2.4c0.2-0.7,0.5-1.2,1.2-2
		l0.7-1c0-1,0.2-1.5,0.5-1.5c0.2-0.2,0.2-0.5,0-0.5c0-0.7,0.2-1,0.5-1c0.2-0.2,0.5-0.7,0.5-1c0-0.7-0.2-0.7-1,0
		c-1.2,3.2-11.3,18.1-11.3,19.6c0,0.2-0.2,0.5-0.5,0.5c-1,0-12.7,23.5-12.7,26.4c-1.2,3.9,2-1.5,3.4-6.9
		C557.1,223.7,557.6,223.5,557.8,223.5z M554.9,218.6c0-0.2,0.2-0.5,1-0.5c1,0.5,1,1,0,1.5L554.9,218.6z M557.3,215.1
		c-0.5,1-0.7,1.5-1,1.5c-0.7,0-1.2-0.7,0.5-2.4C557.6,212.5,558,213.2,557.3,215.1z M560.3,208.8c0.7,2,1.2,1.7-0.5,2.4
		c-1.7,1.7-1.2,0-0.5-2C559.5,209,560,208.8,560.3,208.8z M559.3,141.7c0.7-1.5,1-1.7,1-0.5c0,0.7-0.2,1-1,1V141.7z M560.3,146.6
		c-1,1-1,2,0,2.9c0.7,0,1-0.5,1-1.5C561.2,147.1,561,146.6,560.3,146.6z M562.2,204.4c0.7,0,1,0.2,1,0.5s-0.2,0.5-1,0.5
		c-0.2,0-0.7-0.2-1-0.5C561.2,204.6,561.5,204.4,562.2,204.4z M561.7,144.2c-0.7,0.7-0.5,1,0.5,1c1.7,0,2-0.2,0.5-1
		C562.5,143.9,562,143.9,561.7,144.2z M562.2,146.1c-0.2,0.2-0.2,0.7,0,1V146.1z M563.2,201.9c0.2,0,0.5-0.2,0.5-0.5
		c0-0.7,0.2-1.2,1-2c0.7-0.7,1-0.7,1-0.5c0,0.2-0.2,0.7-0.5,1c-0.2,1-0.5,1.5-0.5,1.2v0.2c-0.5,1.5-1.2,1.7-2,1
		C562,202.4,562.5,201.9,563.2,201.9z M567.6,136.8l-0.5,0.5l-1.5,2c-1,2.2-1.7,3.2-2,2.9c0.7,1.7,0.5,1.5,2.4-2.4
		C567.6,137.8,568.1,136.8,567.6,136.8z M566.1,137.3l0.5-1.5c0-2,0.2-2.7,1-2v-0.5h-2c-1.7,0-2.2,0.7-1,2.4L566.1,137.3z
		 M565.6,134.9v0.5v0.5c-0.2-0.2-0.5-0.7-0.5-1.5C565.4,134.4,565.6,134.6,565.6,134.9z M567.1,132.4c0.7,0,0.7-0.2,0.5-0.5
		c0-0.2,0.7-1.7,2.4-4.4c1.2-2.2,2-3.7,2-3.9c-0.5,0-1.2,0.2-2,1c-2.7,3.7-5.1,8.3-4.4,8.3c0.7,0,1-0.2,1-0.5
		C566.6,132.2,566.9,132.2,567.1,132.4z M570,132.4c-0.2,0-0.2,0-0.5,0.2l-1,0.7c-0.7,2-0.7,2.2,1,0.5
		C571.3,133.2,571.8,130.7,570,132.4z M570,190.2v-0.5h0.5c0,0.2,0,0.5,0.2,0.5h0.2c0,0.2-0.2,0.5-1,0.5V190.2z M573,186.3
		c0,1-0.2,1.7-1,2.4c-0.7,2-1.7,0,0-2C572.7,185.3,573,185,573,186.3z M573,127.5c-0.7,0-1.5,2.2-1.5,3.9c0,0.5,0.2,0.2,1-1
		C574.2,127.8,573.7,127.5,573,127.5z M574.4,119.7l-1,1c-0.7,0.7-0.7,1-0.5,1c0.7,0,2.7-2,2-2H574.4z M576.9,182.8
		c-0.7,0-0.7,0.5-1.5,0.5c-1,0-1.5,0.2-1.5,0.5c0-1.7,1.2-2.7,2-2C576.6,182.6,576.9,182.1,576.9,182.8z M577.4,149.6l2.4-1
		c1.7-0.7,3.2-2.4,3.9-2.4c1-1,1.7-1.5,2-1.5c0.7,0,1.2-1.2,2.9-2c2-1.7,4.4-2.9,6.4-4.9c2-0.7,3.7-1.7,2.9-2.4
		c0-0.7,0.2-0.7,0.5-0.5c0,0.7,2-0.5,5.9-3.4l7.8-6.4l8.3-6.4c5.6-3.9,10.8-9.1,10.8-9.8h-0.5l-1.5,1.5l-2.4,2
		c-2.7,1.2-10.8,7.8-11.3,8.3l-5.4,4.4c-3.7,2-7.6,5.4-10.3,7.3c-3.9,3.9-9.1,7.3-14.7,11.3l-5.9,4.4L577.4,149.6z M581.8,176h-1
		c-0.7,0-2.2,2-1.5,2l0.2-0.2c0,0,0.2-0.2,1-0.5L581.8,176z M581.3,179.9c-0.7,0-1,1.7-1,2.4c0.7,0,1-0.2,1-1V179.9z M581.8,177.9v1
		c-0.7,0-0.7,0.7,0,0c0.7,0,1.2-1,0.5-1H581.8z M585.7,173.5h-1v1.5c-0.7,0.7-0.7,1.2,0,0.5C585.9,174.3,586.4,173.5,585.7,173.5z
		 M589.6,169.1c0.7,0,1-0.2,1-1c-0.7-0.7-0.5-1,0.5-1c1.2-0.2,1.2-0.7,0.5-2c-0.7-0.7-1,0-2.9,3.9l-0.7,1.7
		c-0.2,0.2-0.2,0.5-0.2,0.7c0.7,0,1-0.2,1-1C588.6,170.4,588.9,169.9,589.6,169.1z M592.6,163.3c-0.7,0.7-0.7,1.2-0.5,1.5
		c0.7,0.7,2-0.7,2-1.5C593.5,162.8,593,162.8,592.6,163.3z M597.5,157.9c-0.2,0-0.2,0-0.5,0.2s-0.5,0.5-0.5,0.7c-1.2,0.7-2,1-2.4,1
		c-0.5,0-0.5,0.5,0,1.5c0,0.7,0.7,0.2,2-1C597,159.3,597.5,158.6,597.5,157.9z M602.8,151l1.5-1.5l0.5-1l0.5-0.5l1-1.5
		c1-1,1.5-1.7,1.5-2c0-0.5,0.7-1.2,2.4-2.4c0.7-1.7,2.2-3.4,3.9-5.4c1.7-1.7,2.7-3.7,3.4-4.4c2.7-2,0.7-1.7-2,1
		c-2,2-4.2,3.7-5.9,4.4c-3.7,2-5.4,4.6-5.4,5.4h0.5c0.2,0,0.2,0.2,0,0.5c-0.7,1.7-1.7,1.2-1,0.5c0.7-0.7,0-0.7,0,0
		c-0.2,0-0.5,0.2-0.5,1c0.7,0.7,0.7,1.2,0,0.5c-0.7-0.7-2,0.7-2,1.5l0.2,0.2c0,0.2,0,0.2-0.2,0.2s-0.5,0.2-0.5,1
		c0,0.7-0.2,2.4-2,4.4c-0.7,1-1,2-1.2,2.7c-0.2,0.2-0.2,0.7-0.2,1.2c0,0.5,3.4-2.9,3.4-3.4C600.9,153.2,601.6,152.3,602.8,151z
		 M602.3,137.8c-0.2,0-0.5,0.2-0.7,0.2l-0.2,0.2c-1.2,0.7-1.5,1-1,1c0,0.7,2.4-0.7,2.4-1.5H602.3z M606.3,134.4
		c-0.2,0-0.5,0.2-0.5,1c0.2,0,0.7-0.2,1-0.5C607,134.6,607,134.4,606.3,134.4z M611.6,131l0.5-0.5c0-0.2-0.5,0-1.5,1
		c-0.7,0.7-1.2,1-1.5,1c-0.7,0-1,0.2-1,0.5c0,1,0.7,0.7,2.4-1L611.6,131z M613.6,126.1h-0.5c-0.7,0.7-0.7,1,0,1
		c0.2,0,0.5-0.2,0.7-0.5c0.2-0.2,0.2-0.2,0.2-0.5H613.6z M616.1,128c0.7-0.7,1.2-1.2-0.5-0.5c-0.2,0-0.5,0.2-0.5,0.5H616.1z
		 M643,100.6c0-0.2-0.2-0.2-0.5,0l-3.9,2.9l-2.4,2.4c0,0.7,0.7,0.2,5.4-3.4C642.5,102.1,643,101.3,643,100.6z"/>
</g>
</svg>
